<svg width="16" height="17" viewBox="0 0 16 17" fill="none" xmlns="http://www.w3.org/2000/svg">
<path fill-rule="evenodd" clip-rule="evenodd" d="M7.5 1.42222C9.5 1.42222 9.75 1.42222 10.5 1.51111C11.25 1.51111 11.6667 1.68889 11.9167 1.77778C12.25 1.95556 12.5 2.13333 12.75 2.4C13 2.66667 13.1667 2.93333 13.3333 3.28889C13.4167 3.55556 13.5833 4 13.5833 4.8C13.5833 5.6 13.6667 5.86667 13.6667 8C13.6667 10.1333 13.6667 10.4 13.5833 11.2C13.5833 12 13.4167 12.4444 13.3333 12.7111C13.1667 13.0667 13 13.3333 12.75 13.6C12.5 13.8667 12.25 14.0444 11.9167 14.2222C11.6667 14.3111 11.25 14.4889 10.5 14.4889C9.75 14.4889 9.5 14.5778 7.5 14.5778C5.5 14.5778 5.25 14.5778 4.5 14.4889C3.75 14.4889 3.33333 14.3111 3.08333 14.2222C2.75 14.0444 2.5 13.8667 2.25 13.6C2 13.3333 1.83333 13.0667 1.66667 12.7111C1.58333 12.4444 1.41667 12 1.41667 11.2C1.41667 10.4 1.33333 10.1333 1.33333 8C1.33333 5.86667 1.33333 5.6 1.41667 4.8C1.41667 4 1.58333 3.55556 1.66667 3.28889C1.83333 2.93333 2 2.66667 2.25 2.4C2.5 2.04444 2.75 1.86667 3.08333 1.77778C3.33333 1.68889 3.75 1.51111 4.5 1.51111C5.25 1.42222 5.5 1.42222 7.5 1.42222ZM7.5 0C5.5 0 5.16667 0 4.41667 0.0888889C3.58333 0.0888889 3.08333 0.266667 2.58333 0.444444C2.08333 0.622222 1.66667 0.888889 1.25 1.33333C0.833333 1.77778 0.583333 2.22222 0.416667 2.75556C0.166667 3.28889 0.0833333 3.82222 0.0833333 4.71111C0 5.51111 0 5.86667 0 8C0 10.1333 0 10.4889 0.0833333 11.2889C0.0833333 12.1778 0.25 12.7111 0.416667 13.2444C0.583333 13.7778 0.833333 14.2222 1.25 14.6667C1.66667 15.1111 2.08333 15.3778 2.58333 15.5556C3.08333 15.7333 3.58333 15.9111 4.41667 15.9111C5.16667 16 5.5 16 7.5 16C9.5 16 9.83333 16 10.5833 15.9111C11.4167 15.9111 11.9167 15.7333 12.4167 15.5556C12.9167 15.3778 13.3333 15.1111 13.75 14.6667C14.1667 14.2222 14.4167 13.7778 14.5833 13.2444C14.75 12.7111 14.9167 12.1778 14.9167 11.2889C14.9167 10.4 15 10.1333 15 8C15 5.86667 15 5.51111 14.9167 4.71111C14.9167 3.82222 14.75 3.28889 14.5833 2.75556C14.4167 2.22222 14.1667 1.77778 13.75 1.33333C13.3333 0.888889 12.9167 0.622222 12.4167 0.444445C11.9167 0.266667 11.4167 0.088889 10.5833 0.088889C9.83333 0 9.5 0 7.5 0ZM7.5 3.91111C5.33333 3.91111 3.66667 5.68889 3.66667 8C3.66667 10.3111 5.41667 12.0889 7.5 12.0889C9.66667 12.0889 11.3333 10.2222 11.3333 8C11.3333 5.77778 9.66667 3.91111 7.5 3.91111ZM7.5 10.6667C6.08333 10.6667 5 9.51111 5 8C5 6.48889 6.08333 5.33333 7.5 5.33333C8.91667 5.33333 10 6.48889 10 8C10 9.51111 8.91667 10.6667 7.5 10.6667ZM11.5 2.75556C11 2.75556 10.5833 3.2 10.5833 3.73333C10.5833 4.26667 11 4.71111 11.5 4.71111C12 4.71111 12.4167 4.26667 12.4167 3.73333C12.4167 3.2 12 2.75556 11.5 2.75556Z" fill="black"/>
</svg>
