<svg width="22" height="19" viewBox="0 0 22 19" fill="none" xmlns="http://www.w3.org/2000/svg">
<path d="M7.02246 14.2273C7.95856 14.2274 8.71777 14.9865 8.71777 15.9226C8.71767 16.8587 7.9585 17.6178 7.02246 17.618C6.08634 17.618 5.32726 16.8587 5.32715 15.9226C5.32715 14.9865 6.08627 14.2273 7.02246 14.2273Z" stroke="#F3F0EF"/>
<path d="M18.4375 14.2274C19.3736 14.2275 20.1328 14.9865 20.1328 15.9227C20.1327 16.8587 19.3735 17.6179 18.4375 17.618C17.5014 17.618 16.7423 16.8588 16.7422 15.9227C16.7422 14.9865 17.5013 14.2274 18.4375 14.2274Z" stroke="#F3F0EF"/>
<path d="M0 0.556607H3.82439L6.69268 11.9712H18.6439L21.5122 0.117584" stroke="#F3F0EF"/>
</svg>
